<?xml version="1.0" encoding="UTF-8" standalone="no"?><!DOCTYPE svg PUBLIC "-//W3C//DTD SVG 1.1//EN" "http://www.w3.org/Graphics/SVG/1.1/DTD/svg11.dtd"><svg width="100%" height="100%" viewBox="0 0 1079 1814" version="1.1" xmlns="http://www.w3.org/2000/svg" xmlns:xlink="http://www.w3.org/1999/xlink" xml:space="preserve" xmlns:serif="http://www.serif.com/" style="fill-rule:evenodd;clip-rule:evenodd;stroke-linejoin:round;stroke-miterlimit:2;"><g><path id="Outline" d="M153.518,1583.15c-2.218,35.498 -16.639,90.963 7.766,137.555c24.405,46.591 43.263,57.685 107.604,89.854c55.465,7.766 112.041,-2.218 214.098,-29.951c68.778,-21.077 129.79,-48.81 173.053,-80.98c23.296,-28.842 25.514,-25.515 25.514,-25.515c0,0 130.972,-157.877 154.196,-208.551c19.383,-42.296 18.669,-95.677 18.669,-95.677c0,0 -2.03,-52.906 -3.089,-113.736c-0.672,-38.568 -5.454,-80.605 15.206,-132.257c43.264,-21.077 53.248,-28.842 66.559,-48.81c13.312,-19.968 58.794,-58.794 108.714,-178.6c7.764,-22.186 6.655,-45.482 6.655,-70.996c0,-13.312 -6.791,-21.028 -11.229,-35.449c0.69,-2.289 17.964,-121.71 19.478,-137.206c2.856,-29.212 10.79,-191.987 8.535,-207.71c-1.164,-8.109 -52.347,-179.291 -142.202,-243.631c-89.854,-64.34 -215.881,-162.229 -286.015,-165.127c-35.499,-5.547 -62.445,4.115 -75.757,0.786c-13.312,-3.328 -15.056,-22.186 -79.397,-23.296c-35.498,6.657 -49.284,16.641 -61.486,13.312c-12.203,-3.328 -31.934,-12.676 -69.65,-3.802c-37.717,16.641 -48.972,12.526 -94.453,38.04c-45.482,25.515 -62.909,42.704 -77.33,28.283c-14.421,-14.421 -20.043,-29.553 -6.731,-47.303c13.312,-17.748 4.592,-12.964 12.357,-15.183c7.766,-2.219 -11.097,-21.5 -45.486,6.234c-34.389,27.732 -84.308,51.028 -79.87,122.024c4.437,70.996 12.525,77.108 9.196,102.622c-3.328,25.515 2.239,82.634 12.223,102.602c9.984,19.968 16.297,25.514 10.75,44.373c-5.546,18.858 -18.858,37.717 -18.858,72.105c0,34.389 -0.423,27.286 -5.547,76.543c-4.82,46.349 -3.808,39.567 -3.937,72.414c-0.131,33.446 9.484,72.906 9.484,72.906l-30.219,35.71c0,0 -50.761,29.741 -27.465,60.801c23.295,31.061 44.373,38.826 44.373,38.826c0,0 -29.288,57.734 -38.712,91.662c-5.547,38.826 -10.044,47.977 -8.934,54.633c1.109,6.656 6.601,5.682 6.601,5.682c0,0 4.437,15.53 6.656,21.077c2.218,5.547 -2.08,66.489 -7.627,96.441c-5.546,29.952 -21.077,101.502 6.656,148.094c27.733,46.591 48.671,82.714 96.372,132.633c43.263,33.279 43.16,32.872 43.16,32.872c0,0 -7.662,130.197 -9.881,165.696Z" style="fill:#f251c9;"/><path id="Stache" d="M59.221,834.37l34.836,21.741l76.858,25.185l32.624,13.303l47.568,27.689c0,0 27.234,18.033 29.818,19.879c19.879,14.199 71.706,60.347 71.706,60.347l39.048,37.628l-1.42,115.723l-52.537,-78.805l-48.278,-51.827l-39.048,-23.43l-49.697,-9.229l-83.065,-13.489l-9.94,-5.68l-41.887,-14.909l-21.3,9.94l-9.229,4.969l-28.385,22.053l-6.862,-36.565l-0.031,-18.253l0.893,-12.77l3.348,-12.098l10.459,-19.494l13.112,-21.789"/><path d="M251.686,876.122c0,0 6.833,-8.785 18.546,-4.88c11.714,3.904 14.643,4.88 26.356,-1.952c11.714,-6.834 27.332,-38.07 27.332,-38.07c0,0 11.715,11.713 10.738,25.38c-0.976,13.665 1.952,15.618 -8.785,14.642c-10.737,-0.977 -8.785,9.761 -11.714,14.642c-2.929,4.88 -11.713,-1.952 -23.428,0c-11.713,1.952 -20.499,0 -29.284,-1.952c-8.786,-1.952 -9.761,-7.81 -9.761,-7.81Z" style="fill:#ac1b87;"/><g id="Nostril-shadow" serif:id="Nostril shadow"><path d="M146.881,825.745l19.367,0l6.871,2.499l7.497,3.123l6.248,6.873l12.495,3.748l16.243,0.625l16.243,1.874l8.747,-3.124l-21.867,-27.488c0,0 -64.347,1.25 -68.721,5.623c-4.373,4.372 -3.123,6.247 -3.123,6.247Z" style="fill:#ac1b87;"/></g><g id="Right-Eye" serif:id="Right Eye"><path d="M529.036,658.795l34.077,-4.26c0,0 -72.873,-45.739 -88.035,-48.987c-19.878,-4.26 -98.911,2.583 -98.911,2.583l2.073,40.724" style="fill:#45bdc3;"/></g><path id="Right-Brow" serif:id="Right Brow" d="M380.738,521.11l-100.658,-35.2l42.043,-11.324l145.5,-6.645l47.447,6.148l88.901,34.049l42.179,21.796c0,0 -126.576,-15.49 -158.853,-14.199c-44.373,1.775 -106.559,5.375 -106.559,5.375Z"/><path id="Hair" d="M91.396,405.062c0,0 27.772,-5.878 41.639,-25.291c13.866,-19.413 19.413,-61.011 44.372,-76.265c24.959,-15.253 42.956,12.641 65.142,11.532c22.186,-1.109 48.809,3.328 84.308,-15.53c35.498,-18.859 85.417,-43.264 85.417,-43.264c0,0 105.385,-6.655 149.757,11.093c44.372,17.75 53.247,45.483 85.418,54.357c32.169,8.874 84.307,-7.765 105.384,-9.984c21.077,-2.219 21.077,127.571 21.077,127.571c0,0 60.948,45.038 74.324,104.275c7.765,34.389 8.996,63.231 8.996,63.231l-23.296,165.288l5.82,106.339c0,0 84.986,-182.665 197.48,-88.369c15.44,-43.563 14.889,-46.872 14.889,-46.872l21.506,-83.268l4.963,-184.18c0,0 -24.483,-163.778 -108.964,-268.442c-54.593,-40.144 -212.624,-152.109 -286.723,-168.48c-20.679,-6.893 -26.552,-5.046 -120.779,-17.108c-30.15,-21.768 -70.51,-24.41 -95.78,-19.747c-25.697,4.743 -25.562,14.365 -48.171,7.748c-22.609,-6.617 -53.49,-2.206 -65.621,-0.552c-25.918,12.132 -140.585,74.163 -148.337,74.996c-15.389,1.655 -35.919,-12.871 -24.212,-36.946c8.719,-13.559 6.066,-26.469 36.396,-27.021c3.86,-1.103 -22.609,-14.889 -69.482,4.963c-15.005,11.671 -36.438,26.111 -53.406,42.022c-16.705,15.664 -29.049,32.795 -30.964,45.106c-3.86,24.814 -9.926,18.748 3.86,125.176c-1.654,62.313 -2.206,93.194 8.823,119.663c11.58,18.197 13.234,26.469 15.992,31.983c2.757,5.514 0.172,15.976 0.172,15.976"/><path id="Beard" d="M390.181,1155.72l254.918,-74.724l194.797,-203.221l-49.608,229.039l-36.607,82.089l-15.53,34.389l-33.28,56.575c0,0 -73.831,61.521 -89.144,67.091c-296.311,107.79 -318.075,95.619 -318.075,95.619c0,0 -62.466,-2.045 -134.086,-25.48c0,0 -36.416,-23.973 -54.183,-42.408c-7.203,-7.473 -27.588,-30.314 -42.202,-50.926c-18.943,-26.72 -31.867,-51.377 -31.867,-51.377c0,0 -25.286,-31.885 -26.769,-67.47c-0.366,-8.8 -3.3,-11.733 0.367,-51.335c3.667,-39.601 12.44,-85.592 12.44,-85.592l22.738,-24.707l25.424,-23.277l37.957,26.678l20.769,35.092l16.472,33.482l87.787,73.586l52.941,-9.847l104.741,-23.276Z"/><g id="Left-Shadow" serif:id="Left Shadow"><path d="M182.641,606.497c0,0 7.907,-11.421 9.225,-21.524c1.317,-10.103 -6.15,-17.132 -10.543,-25.039c-4.393,-7.906 -5.738,-17.137 -11.495,-23.794c-5.758,-6.658 -28.788,-8.637 -28.788,-8.637l-34.186,4.318c0,0 -35.486,4.502 -37.736,12.936c-2.249,8.434 -1.824,16.904 -3.439,27.203c-1.646,10.499 -1.973,19.886 -1.868,24.223c0.063,2.573 -0.567,23.475 -0.377,28.701c0.041,1.127 16.439,-8.722 21.781,-13.689c5.593,-5.2 5.502,-6.747 14.67,-8.689c9.782,-2.071 5.84,-0.444 23.425,-3.67c3.433,-0.63 9.813,3.74 14.03,4.021c4.216,0.282 8.92,2.628 13.499,3.166c3.847,0.451 13.578,3.89 17.857,4.577c6.475,1.039 13.945,-4.103 13.945,-4.103" style="fill:#ac1b87;"/></g><g id="Left-Eye" serif:id="Left Eye"><path d="M171.938,613.952l-48.82,-12.795l-29.256,4.979l-17.254,14.511l-2.773,6.401l3.963,11.147l12.572,3.189l14.076,4.556l18.428,2.334l18.832,-10.333l11.564,-7.332l18.668,-16.657Z" style="fill:#45bdc3;"/></g><g id="Left-Eyebrow" serif:id="Left Eyebrow"><path d="M66.938,546.407l4.951,-43.816l3.595,-0.589l35.892,-5.865l58.965,40.216l-19.655,5.027l-23.074,-2.513l-27.345,-1.676l-33.329,9.216Z"/></g></g></svg>