<svg height="512pt" viewBox="-68 0 512 512" width="512pt" xmlns="http://www.w3.org/2000/svg"><path d="m52.5 322.5 45 80h30v-60zm0 0" fill="#696969"/><path d="m7.5 342.5v60h90v-80zm0 0" fill="#4f4f4f"/><path d="m97.5 312.5-35 15 35 15h30v-30zm0 0" fill="#808080"/><path d="m7.5 312.5h90v30h-90zm0 0" fill="#696969"/><path d="m188 262.5 30 75c24.851562 0 45-20.148438 45-45zm0 0" fill="#808080"/><path d="m173 292.5c0 24.851562 20.144531 45 45 45v-75zm0 0" fill="#999"/><path d="m248 172.5h-30l-20 80h60zm0 0" fill="#dbf4ff"/><path d="m188 172.5-10 80h40v-80zm0 0" fill="#fff"/><path d="m248 172.5c0 34.191406-12.070312 64.023438-30 80l-20 20 20 20h50zm0 0" fill="#4f4f4f"/><path d="m188 172.5-20 120h50v-40c-17.929688-15.976562-30-45.808594-30-80zm0 0" fill="#696969"/><path d="m158 192.5v130c16.566406 0 30-13.433594 30-30v-120h-10c-11.046875 0-20 8.953125-20 20zm0 0" fill="#b3b3b3"/><path d="m258 172.5h-10v120c0 16.566406 13.429688 30 30 30v-130c0-11.046875-8.953125-20-20-20zm0 0" fill="#999"/><path d="m218 7.5 5 105h10l5-19.6875c14.8125-7.367188 25-22.648438 25-40.3125 0-24.851562-20.148438-45-45-45zm0 0" fill="#ffcb63"/><path d="m233 52.5c0-24.851562-6.71875-45-15-45-24.855469 0-45 20.148438-45 45 0 17.667969 10.183594 32.945312 25 40.3125l5 19.6875h20l1.667969-19.6875c4.9375-7.367188 8.332031-22.644531 8.332031-40.3125zm0 0" fill="#ffe2a8"/><g fill="#ffcb63"><path d="m308 60h-15c-4.144531 0-7.5-3.355469-7.5-7.5s3.355469-7.5 7.5-7.5h15c4.140625 0 7.5 3.355469 7.5 7.5s-3.359375 7.5-7.5 7.5zm0 0"/><path d="m287.292969 31.300781c-2.941407 0-5.734375-1.742187-6.933594-4.632812-1.585937-3.824219.234375-8.214844 4.058594-9.796875l13.859375-5.742188c3.828125-1.585937 8.214844.230469 9.800781 4.058594s-.230469 8.214844-4.058594 9.800781l-13.859375 5.738281c-.9375.390626-1.910156.574219-2.867187.574219zm0 0"/><path d="m148.707031 31.300781c-.957031 0-1.929687-.183593-2.867187-.574219l-13.859375-5.738281c-3.828125-1.585937-5.644531-5.972656-4.058594-9.800781 1.585937-3.824219 5.972656-5.644531 9.796875-4.058594l13.859375 5.742188c3.828125 1.582031 5.644531 5.972656 4.058594 9.796875-1.195313 2.890625-3.988281 4.632812-6.929688 4.632812zm0 0"/><path d="m143 60h-15c-4.144531 0-7.5-3.355469-7.5-7.5s3.355469-7.5 7.5-7.5h15c4.140625 0 7.5 3.355469 7.5 7.5s-3.359375 7.5-7.5 7.5zm0 0"/><path d="m134.851562 94.441406c-2.941406 0-5.734374-1.742187-6.929687-4.628906-1.585937-3.828125.230469-8.214844 4.058594-9.800781l13.855469-5.738281c3.828124-1.585938 8.214843.230468 9.800781 4.058593 1.585937 3.824219-.230469 8.210938-4.058594 9.796875l-13.859375 5.742188c-.9375.386718-1.910156.570312-2.867188.570312zm0 0"/><path d="m301.144531 94.441406c-.957031 0-1.929687-.183594-2.867187-.570312l-13.859375-5.742188c-3.824219-1.585937-5.644531-5.972656-4.058594-9.796875 1.585937-3.828125 5.976563-5.648437 9.800781-4.058593l13.859375 5.738281c3.824219 1.585937 5.644531 5.972656 4.058594 9.800781-1.199219 2.886719-3.988281 4.628906-6.933594 4.628906zm0 0"/></g><path d="m259.253906 324.957031c5.519532 3.199219 11.917969 5.042969 18.746094 5.042969 4.140625 0 7.5-3.359375 7.5-7.5v-122.785156c50.269531-3.84375 90-45.976563 90-97.214844 0-4.144531-3.359375-7.5-7.5-7.5-4.144531 0-7.5 3.355469-7.5 7.5 0 43.34375-33.605469 78.960938-76.125 82.226562-3.363281-11.386718-13.910156-19.726562-26.375-19.726562h-80c-12.644531 0-23.316406 8.582031-26.515625 20.222656-48.253906 3.199219-87.019531 41.65625-90.699219 89.777344h-23.285156c-4.144531 0-7.5 3.355469-7.5 7.5v22.5h-22.5c-4.144531 0-7.5 3.355469-7.5 7.5v90c0 4.140625 3.355469 7.5 7.5 7.5h120c4.140625 0 7.5-3.359375 7.5-7.5v-90c0-4.144531-3.359375-7.5-7.5-7.5h-22.5v-22.5c0-4.144531-3.355469-7.5-7.5-7.5h-21.644531c3.582031-39.515625 35.128906-71.066406 74.644531-74.644531v122.144531c0 4.140625 3.355469 7.5 7.5 7.5 6.828125 0 13.226562-1.84375 18.746094-5.042969 1.179687 1.496094 2.429687 2.921875 3.753906 4.273438v159.863281l-24.871094 8.289062c-3.929687 1.308594-6.054687 5.558594-4.746094 9.488282 1.050782 3.140625 3.976563 5.128906 7.117188 5.128906.785156 0 1.585938-.125 2.371094-.386719l30-10c3.0625-1.019531 5.128906-3.886719 5.128906-7.113281v-154.582031c6.917969 3.289062 14.582031 5.082031 22.5 5.082031s15.582031-1.792969 22.5-5.082031v154.582031c0 3.226562 2.0625 6.09375 5.128906 7.113281l29.996094 10c.789062.261719 1.589844.386719 2.375.386719 3.140625 0 6.066406-1.988281 7.113281-5.128906 1.3125-3.929688-.8125-8.179688-4.742187-9.488282l-24.871094-8.289062v-159.863281c1.320312-1.351563 2.574219-2.777344 3.753906-4.273438zm-244.253906 70.042969v-45h45.5v7.5c0 4.140625 3.355469 7.5 7.5 7.5s7.5-3.359375 7.5-7.5v-7.5h44.5v45zm105-60h-105v-15h105zm-30-30h-45v-15h45zm105.5-20v-49.355469c4.824219 8.773438 10.707031 16.390625 17.511719 22.453125.035156.03125.070312.058594.105469.089844.09375.078125.1875.15625.285156.230469.09375.070312.183594.140625.277344.207031.097656.070312.199218.132812.296874.199219.101563.0625.199219.125.300782.183593.105468.058594.207031.113282.3125.167969.105468.050781.210937.101563.320312.152344.105469.046875.214844.09375.320313.136719.113281.046875.222656.085937.335937.125.109375.035156.21875.074218.332032.105468.117187.035157.238281.0625.355468.09375.109375.023438.21875.050782.332032.074219.136718.027344.277343.042969.414062.0625.09375.011719.1875.027344.28125.039063.238281.023437.480469.035156.71875.035156s.476562-.011719.714844-.035156c.09375-.011719.1875-.027344.28125-.039063.140625-.019531.28125-.035156.417968-.0625.109376-.023437.21875-.050781.328126-.074219.121093-.03125.238281-.058593.355468-.09375.113282-.03125.222656-.070312.335938-.105468.113281-.039063.222656-.078125.332031-.125.109375-.042969.21875-.089844.324219-.136719.105468-.050781.214844-.101563.320312-.152344.105469-.054687.207032-.109375.308594-.167969.101562-.058593.203125-.121093.300781-.183593.101563-.066407.203125-.128907.296875-.199219.097656-.066406.1875-.136719.28125-.207031.09375-.074219.191406-.152344.285156-.230469.035157-.03125.070313-.058594.105469-.089844 6.804688-6.0625 12.6875-13.679687 17.511719-22.453125v49.355469zm30-105h14.789062c-1.089843 19.476562-6.382812 37.636719-14.789062 51.546875zm-15 51.546875c-8.410156-13.910156-13.699219-32.070313-14.789062-51.546875h14.789062zm60-39.046875v121.214844c-8.730469-3.097656-15-11.4375-15-21.214844v-112.5h2.5c6.890625 0 12.5 5.605469 12.5 12.5zm-105 0c0-6.894531 5.605469-12.5 12.5-12.5h2.5v112.5c0 9.777344-6.269531 18.117188-15 21.214844zm22.492188 122.480469c3.277343-4.359375 5.625-9.449219 6.753906-14.980469h46.507812c1.125 5.53125 3.476563 10.621094 6.75 14.980469-7.03125 9.371093-18.117187 15.019531-30.003906 15.019531-11.890625 0-22.976562-5.648438-30.007812-15.019531zm0 0"/><path d="m233 135h-30c-4.144531 0-7.5 3.355469-7.5 7.5 0 4.140625 3.355469 7.5 7.5 7.5h30c4.140625 0 7.5-3.359375 7.5-7.5 0-4.144531-3.359375-7.5-7.5-7.5zm0 0"/><path d="m191.539062 97.84375 4.191407 16.5c.84375 3.328125 3.835937 5.65625 7.269531 5.65625h30c3.429688 0 6.425781-2.328125 7.269531-5.65625l4.191407-16.5c16.144531-9.398438 26.039062-26.46875 26.039062-45.34375 0-28.949219-23.554688-52.5-52.5-52.5-28.949219 0-52.5 23.550781-52.5 52.5 0 18.875 9.890625 35.945312 26.039062 45.34375zm26.460938-82.84375c20.675781 0 37.5 16.820312 37.5 37.5 0 14.332031-7.984375 27.203125-20.839844 33.59375-1.957031.976562-3.394531 2.753906-3.929687 4.871094l-3.5625 14.035156h-18.335938l-3.5625-14.035156c-.539062-2.117188-1.972656-3.894532-3.929687-4.871094-12.855469-6.390625-20.839844-19.261719-20.839844-33.59375 0-20.679688 16.820312-37.5 37.5-37.5zm0 0"/></svg>