<svg height="512pt" viewBox="0 -83 512 512" width="512pt" xmlns="http://www.w3.org/2000/svg"><path d="m282.371094 234.015625v100.886719h-47.585938v-98.25" fill="#e3e3e3"/><path d="m254.976562 234.015625-244.933593 31.957031v-256.34375l244.933593 32.363282zm0 0" fill="#445c7b"/><path d="m254.976562 41.992188h246.980469v192.023437h-246.980469zm0 0" fill="#445c7b"/><path d="m292.023438 78.027344h172.886718v119.503906h-172.886718zm0 0" fill="#a0d5f4"/><path d="m218.234375 74.332031-123.835937-16.304687v158.765625l123.835937-16.304688zm0 0" fill="#a0d5f4"/><path d="m46.78125 51.757812v171.304688l43.597656-5.738281 4.019532-.53125v-158.765625zm0 0" fill="#67f4d6"/><path d="m323.429688 107.832031h47.28125v60.394531h-47.28125zm0 0" fill="#67f4d6"/><path d="m501.957031 32.363281h-246.320312l-244.277344-32.2773435c-2.867187-.3789065-5.761719.5000005-7.9375 2.4062505s-3.421875 4.65625-3.421875 7.550781v256.34375c0 2.890625 1.246094 5.640625 3.417969 7.546875 1.839843 1.617187 4.199219 2.496094 6.625 2.496094.429687 0 .863281-.027344 1.296875-.085938l213.402344-27.839844v76.769532h-40.980469c-5.546875 0-10.039063 4.496093-10.039063 10.042968s4.492188 10.042969 10.039063 10.042969h149.625c5.546875 0 10.042969-4.496094 10.042969-10.042969s-4.496094-10.042968-10.042969-10.042968h-40.972657v-80.796876h209.542969c5.546875 0 10.042969-4.496093 10.042969-10.042968v-192.027344c0-5.546875-4.496094-10.042969-10.042969-10.042969zm-481.871093-10.863281 224.847656 29.707031v174.40625l-224.847656 29.335938zm252.242187 303.773438h-27.5v-79.390626l10.800781-1.40625h16.699219zm219.585937-100.882813h-226.898437v-171.941406h226.898437zm0 0"/><path d="m292.023438 207.988281h172.886718c5.546875 0 10.042969-4.496093 10.042969-10.042969v-119.503906c0-5.546875-4.496094-10.039062-10.042969-10.039062h-172.886718c-5.546876 0-10.042969 4.492187-10.042969 10.039062v119.503906c0 5.546876 4.496093 10.042969 10.042969 10.042969zm10.042968-119.503906h152.800782v99.417969h-152.800782zm0 0"/><path d="m219.546875 64.789062-123.839844-16.304687-47.613281-6.269531c-2.867188-.375-5.757812.5-7.933594 2.40625-2.171875 1.910156-3.421875 4.660156-3.421875 7.550781v171.308594c0 2.890625 1.25 5.644531 3.421875 7.550781 1.84375 1.613281 4.199219 2.492188 6.621094 2.492188.4375 0 .875-.03125 1.3125-.085938l47.613281-6.269531 123.839844-16.308594c4.996094-.65625 8.730469-4.914063 8.730469-9.957031v-126.15625c0-5.039063-3.734375-9.296875-8.730469-9.957032zm-162.722656-1.164062 27.53125 3.625v141.15625l-27.53125 3.625zm151.367187 128.472656-103.753906 13.660156v-135.863281l103.753906 13.660157zm0 0"/><path d="m370.710938 98.207031h-47.28125c-5.546876 0-10.042969 4.496094-10.042969 10.042969v60.394531c0 5.546875 4.496093 10.039063 10.042969 10.039063h47.28125c5.546874 0 10.039062-4.492188 10.039062-10.039063v-60.394531c0-5.546875-4.492188-10.042969-10.039062-10.042969zm-10.042969 60.394531h-27.195313v-40.3125h27.195313zm0 0"/><path d="m401.1875 118.289062h16.570312c5.546876 0 10.042969-4.496093 10.042969-10.039062 0-5.546875-4.496093-10.042969-10.042969-10.042969h-16.570312c-5.546875 0-10.042969 4.496094-10.042969 10.042969 0 5.542969 4.496094 10.039062 10.042969 10.039062zm0 0"/><path d="m433.324219 127.785156h-32.136719c-5.546875 0-10.042969 4.496094-10.042969 10.042969 0 5.542969 4.496094 10.039063 10.042969 10.039063h32.136719c5.546875 0 10.042969-4.496094 10.042969-10.039063 0-5.546875-4.496094-10.042969-10.042969-10.042969zm0 0"/><path d="m433.324219 156.578125h-32.136719c-5.546875 0-10.042969 4.496094-10.042969 10.039063 0 5.546874 4.496094 10.042968 10.042969 10.042968h32.136719c5.546875 0 10.042969-4.496094 10.042969-10.042968 0-5.542969-4.496094-10.039063-10.042969-10.039063zm0 0"/><path d="m143.378906 106.988281 31.859375 3.933594v23.757813c0 5.546874 4.496094 10.042968 10.042969 10.042968 5.542969 0 10.039062-4.496094 10.039062-10.042968v-32.636719c0-5.070313-3.777343-9.34375-8.8125-9.96875l-40.667968-5.019531c-5.5-.675782-10.519532 3.230468-11.199219 8.738281-.679687 5.5 3.230469 10.515625 8.738281 11.195312zm0 0"/><path d="m194.515625 170.402344c-2.078125-5.140625-7.929687-7.621094-13.074219-5.542969-5.140625 2.078125-7.625 7.933594-5.542968 13.074219l.144531.355468c1.578125 3.90625 5.339843 6.277344 9.3125 6.277344 1.253906 0 2.527343-.234375 3.761719-.734375 5.140624-2.078125 7.625-7.933593 5.542968-13.074219zm0 0"/></svg>