<svg enable-background="new 0 0 36 36" height="512" viewBox="0 0 36 36" width="512" xmlns="http://www.w3.org/2000/svg"><path d="m7.678 5.564c-1.805 6.677-6.504 10.327-7.374 13.545s-.847 10.475 13.955 14.477 19.432-4.501 20.388-8.041c4.481-16.572-23.772-31.807-26.969-19.981z" fill="#efefef"/><path d="m18.75 6.75c-.83 0-1.5.67-1.5 1.5 0 .55-.45 1-1 1h-4.5c-.55 0-1-.45-1-1 0-.83-.67-1.5-1.5-1.5z" fill="#2fdf84"/><path d="m21.25 8.71v18.58c0 1.08-.87 1.96-1.93 1.96h-10.64c-1.06 0-1.93-.88-1.93-1.96v-18.58c0-1.08.87-1.96 1.93-1.96h.57c.83 0 1.5.67 1.5 1.5 0 .55.45 1 1 1h4.5c.55 0 1-.45 1-1 0-.83.67-1.5 1.5-1.5h.57c1.06 0 1.93.88 1.93 1.96z" fill="#f3f3f1"/><path d="m9 27.29v-18.58c0-.753.428-1.401 1.043-1.729-.23-.144-.501-.231-.793-.231h-.57c-1.06 0-1.93.88-1.93 1.96v18.58c0 1.08.87 1.96 1.93 1.96h2.25c-1.06 0-1.93-.88-1.93-1.96z" fill="#d5dbe1"/><path d="m19.5 8.25c0-.538.283-1.005.707-1.269-.267-.143-.566-.231-.887-.231h-.57c-.83 0-1.5.67-1.5 1.5 0 .55-.45 1-1 1h2.25c.55 0 1-.45 1-1z" fill="#d5dbe1"/><path d="m29.25 15.59v5.66c0 .55-.45 1-1 1h-10.5c-.55 0-1-.45-1-1v-5.66l5.56 2.9c.43.22.95.22 1.38 0z" fill="#2fdf84"/><path d="m29.25 14.75v.84l-5.56 2.9c-.43.22-.95.22-1.38 0l-5.56-2.9v-.84c0-.55.45-1 1-1h10.5c.55 0 1 .45 1 1z" fill="#2fdf84"/><path d="m19 21.25v-4.486l-2.25-1.174v5.66c0 .55.45 1 1 1h2.25c-.55 0-1-.45-1-1z" fill="#00b871"/><path d="m19 15.34v-.84c0-.303.144-.566.359-.75h-1.609c-.55 0-1 .45-1 1v.84l5.56 2.9c.43.22.95.22 1.38 0l.675-.352z" fill="#00b871"/><g fill="#a4afc1"><path d="m23 32.5c-.827 0-1.5-.673-1.5-1.5s.673-1.5 1.5-1.5 1.5.673 1.5 1.5-.673 1.5-1.5 1.5zm0-2c-.275 0-.5.224-.5.5s.225.5.5.5.5-.224.5-.5-.225-.5-.5-.5z"/><path d="m27.556 3.717h1v2h-1z" transform="matrix(.707 -.707 .707 .707 4.879 21.216)"/><path d="m31.621 7.783h1v2h-1z" transform="matrix(.707 -.707 .707 .707 3.195 25.281)"/><path d="m26.879 8.283h2v1h-2z" transform="matrix(.707 -.707 .707 .707 1.955 22.286)"/><path d="m30.944 4.217h2v1h-2z" transform="matrix(.707 -.707 .707 .707 6.021 23.97)"/></g><path d="m16.25 10h-4.5c-.965 0-1.75-.785-1.75-1.75 0-.414-.337-.75-.75-.75h-.5v-1.5h.5c1.24 0 2.25 1.009 2.25 2.25 0 .138.112.25.25.25h4.5c.138 0 .25-.112.25-.25 0-1.241 1.01-2.25 2.25-2.25h.5v1.5h-.5c-.413 0-.75.336-.75.75 0 .965-.785 1.75-1.75 1.75z"/><path d="m19.316 30h-10.632c-1.48 0-2.684-1.214-2.684-2.707v-18.586c0-1.493 1.204-2.707 2.684-2.707h10.633c1.479 0 2.683 1.214 2.683 2.707v2.043h-1.5v-2.043c0-.666-.531-1.207-1.184-1.207h-10.632c-.653 0-1.184.541-1.184 1.207v18.587c0 .666.531 1.207 1.184 1.207h10.633c.652 0 1.184-.541 1.184-1.207v-2.044h1.499v2.043c0 1.493-1.204 2.707-2.684 2.707z"/><path d="m28.25 23h-10.5c-.965 0-1.75-.785-1.75-1.75v-6.5c0-.965.785-1.75 1.75-1.75h10.5c.965 0 1.75.785 1.75 1.75v6.5c0 .965-.785 1.75-1.75 1.75zm-10.5-8.5c-.138 0-.25.112-.25.25v6.5c0 .138.112.25.25.25h10.5c.138 0 .25-.112.25-.25v-6.5c0-.138-.112-.25-.25-.25z"/><path d="m22.998 19.405c-.354 0-.707-.082-1.029-.247l-5.565-2.903.693-1.33 5.56 2.9c.21.107.479.106.693-.003l5.554-2.897.693 1.33-5.56 2.9c-.326.167-.683.25-1.039.25z"/></svg>