<svg height="512pt" viewBox="0 -27 512 512" width="512pt" xmlns="http://www.w3.org/2000/svg"><path d="m230.398438 228.386719h256v187.730469h-256zm0 0" fill="#0377bc"/><path d="m230.398438 228.386719h234.667968v187.730469h-234.667968zm0 0" fill="#02a9f4"/><path d="m443.734375 305.183594v110.933594h-68.269531v-110.933594c-.023438-13.898438 8.429687-26.40625 21.335937-31.570313 4.046875-1.722656 8.402344-2.59375 12.800781-2.5625 9.054688-.011719 17.742188 3.582031 24.148438 9.984375 6.402344 6.40625 9.996094 15.09375 9.984375 24.148438zm0 0" fill="#424242"/><path d="m418.132812 305.183594v110.933594h-42.667968v-110.933594c-.023438-13.898438 8.429687-26.40625 21.335937-31.570313 4.230469 1.707031 8.085938 4.230469 11.347657 7.421875 6.378906 6.421875 9.96875 15.097656 9.984374 24.148438zm0 0" fill="#9e9e9e"/><path d="m341.332031 296.652344v59.734375c0 4.710937-3.820312 8.53125-8.53125 8.53125h-42.667969c-4.710937 0-8.53125-3.820313-8.53125-8.53125v-59.734375c0-4.714844 3.820313-8.535156 8.53125-8.535156h42.667969c1.335938.007812 2.648438.332031 3.839844.941406.878906.4375 1.6875 1.015625 2.390625 1.703125 1.464844 1.613281 2.28125 3.710937 2.300781 5.890625zm0 0" fill="#9e9e9e"/><path d="m494.933594 236.917969h-247.46875l-213.332032-34.132813v-153.601562c0-4.710938 3.820313-8.53125 8.535157-8.53125h369.832031c3.398438.011718 6.472656 2.015625 7.851562 5.121094l82.433594 179.199218c1.152344 2.640625.894532 5.6875-.691406 8.097656-1.582031 2.410157-4.277344 3.859376-7.160156 3.847657zm0 0" fill="#283593"/><path d="m465.066406 236.917969h-217.601562l-213.332032-34.132813v-153.601562c0-4.710938 3.820313-8.53125 8.535157-8.53125h339.964843c3.398438.011718 6.472657 2.015625 7.851563 5.121094l82.433594 179.199218c1.152343 2.640625.894531 5.6875-.691407 8.097656-1.582031 2.410157-4.277343 3.859376-7.160156 3.847657zm0 0" fill="#3f51b5"/><path d="m247.464844 219.851562-110.929688 25.601563-14.933594-3.414063-96-22.1875 96-191.914062 7.335938-14.679688c1.421875-2.898437 4.367188-4.734374 7.597656-4.734374 3.226563 0 6.171875 1.835937 7.59375 4.734374zm0 0" fill="#0377bc"/><path d="m217.601562 219.851562-96 22.1875-96-22.1875 96-191.914062zm0 0" fill="#02a9f4"/><path d="m162.132812 125.984375v51.199219c0 4.714844-3.820312 8.535156-8.53125 8.535156h-34.136718c-4.710938 0-8.53125-3.820312-8.53125-8.535156v-49.746094c-.023438-9.5625 4.878906-18.464844 12.96875-23.554688 3.25-2.003906 6.941406-3.179687 10.753906-3.414062 5.519531-.410156 11.023438.964844 15.699219 3.925781 1.535156 1.023438 2.964843 2.195313 4.269531 3.5.527344.5 1.011719 1.042969 1.449219 1.621094 3.914062 4.59375 6.0625 10.433594 6.058593 16.46875zm0 0" fill="#9e9e9e"/><path d="m401.066406 108.917969v76.800781c0 4.710938-3.820312 8.53125-8.53125 8.53125h-102.402344c-4.710937 0-8.53125-3.820312-8.53125-8.53125v-76.800781c.027344-9.414063 7.652344-17.039063 17.066407-17.066407h85.332031c1.644531.003907 3.28125.234376 4.863281.683594 2.441407.753906 4.683594 2.035156 6.570313 3.753906 3.585937 3.21875 5.632812 7.8125 5.632812 12.628907zm0 0" fill="#9e9e9e"/><path d="m25.601562 219.851562h221.863282v196.265626h-221.863282zm0 0" fill="#00838f"/><path d="m25.601562 219.851562h196.265626v196.265626h-196.265626zm0 0" fill="#00bcd4"/><path d="m213.332031 296.652344v76.800781c0 4.710937-3.820312 8.53125-8.53125 8.53125h-136.535156c-1.972656.03125-3.886719-.667969-5.375-1.960937-1.402344-1.128907-2.390625-2.691407-2.816406-4.4375-.242188-.683594-.359375-1.410157-.339844-2.132813v-76.800781c0-4.714844 3.820313-8.535156 8.53125-8.535156h136.535156c.90625-.003907 1.804688.171874 2.644531.511718 1.011719.257813 1.949219.757813 2.730469 1.453125 2.011719 1.585938 3.175781 4.007813 3.15625 6.570313zm0 0" fill="#9e9e9e"/><g fill="#cfd8dc"><path d="m315.734375 296.652344v59.734375c0 4.710937-3.820313 8.53125-8.535156 8.53125h-17.066407c-4.710937 0-8.53125-3.820313-8.53125-8.53125v-59.734375c0-4.714844 3.820313-8.535156 8.53125-8.535156h17.066407c1.335937.007812 2.652343.332031 3.839843.941406.882813.4375 1.6875 1.015625 2.390626 1.703125 1.464843 1.613281 2.285156 3.710937 2.304687 5.890625zm0 0"/><path d="m136.535156 125.984375v51.199219c0 4.714844-3.824218 8.535156-8.535156 8.535156h-8.535156c-4.710938 0-8.53125-3.820312-8.53125-8.535156v-49.746094c-.023438-9.5625 4.878906-18.464844 12.96875-23.554688.296875.152344.582031.324219.855468.511719 1.53125 1.023438 2.960938 2.195313 4.265626 3.5.527343.5 1.011718 1.042969 1.453124 1.621094 3.910157 4.59375 6.058594 10.433594 6.058594 16.46875zm0 0"/><path d="m375.464844 108.917969v76.800781c0 4.710938-3.820313 8.53125-8.53125 8.53125h-76.800782c-4.710937 0-8.53125-3.820312-8.53125-8.53125v-76.800781c.027344-9.414063 7.652344-17.039063 17.066407-17.066407h59.730469c1.644531.003907 3.28125.234376 4.867187.683594 2.4375.753906 4.679687 2.035156 6.570313 3.753906 3.582031 3.21875 5.632812 7.8125 5.628906 12.628907zm0 0"/><path d="m187.734375 296.652344v76.800781c0 4.710937-3.820313 8.53125-8.535156 8.53125h-110.933594c-1.972656.03125-3.886719-.667969-5.375-1.960937-1.402344-1.128907-2.390625-2.691407-2.816406-4.4375-.242188-.683594-.359375-1.410157-.339844-2.132813v-76.800781c0-4.714844 3.820313-8.535156 8.53125-8.535156h110.933594c.90625-.003907 1.804687.171874 2.644531.511718 1.015625.257813 1.953125.757813 2.730469 1.453125 2.011719 1.585938 3.175781 4.007813 3.160156 6.570313zm0 0"/></g><path d="m503.464844 416.117188v17.066406c0 4.714844-3.820313 8.535156-8.53125 8.535156h-477.867188c-4.710937 0-8.53125-3.820312-8.53125-8.535156v-17.066406c0-1.503907.414063-2.980469 1.191406-4.265626 1.496094-2.644531 4.300782-4.277343 7.339844-4.265624h477.867188c4.710937 0 8.53125 3.820312 8.53125 8.53125zm0 0" fill="#558b30"/><path d="m482.132812 420.386719v17.066406c0 1.503906-.414062 2.980469-1.195312 4.265625h-463.871094c-4.710937 0-8.53125-3.820312-8.53125-8.535156v-17.066406c0-1.503907.414063-2.980469 1.191406-4.265626h463.875c4.710938 0 8.53125 3.820313 8.53125 8.535157zm0 0" fill="#8bc34a"/><path d="m494.933594 458.785156h-477.867188c-9.425781 0-17.066406-7.640625-17.066406-17.066406v-17.066406c0-9.425782 7.640625-17.066406 17.066406-17.066406h477.867188c9.425781 0 17.066406 7.640624 17.066406 17.066406v17.066406c0 9.425781-7.640625 17.066406-17.066406 17.066406zm-477.867188-34.132812v17.066406h477.867188v-17.066406zm0 0"/><path d="m247.464844 424.652344h-221.863282c-4.714843 0-8.535156-3.820313-8.535156-8.535156v-196.265626c0-4.710937 3.820313-8.535156 8.535156-8.535156h221.863282c4.714844 0 8.535156 3.824219 8.535156 8.535156v196.265626c0 4.714843-3.820312 8.535156-8.535156 8.535156zm-213.332032-17.066406h204.800782v-179.199219h-204.800782zm0 0"/><path d="m247.464844 228.386719h-221.863282c-2.960937 0-5.707031-1.53125-7.261718-4.046875-1.558594-2.515625-1.699219-5.65625-.378906-8.300782l103.304687-206.601562c2.890625-5.785156 8.800781-9.4375 15.269531-9.4375 6.464844 0 12.375 3.652344 15.265625 9.4375l103.347657 206.601562c1.324218 2.652344 1.175781 5.800782-.390626 8.320313-1.566406 2.515625-4.324218 4.042969-7.292968 4.027344zm-208.058594-17.070313h194.253906l-97.125-194.25zm0 0"/><path d="m494.933594 245.453125h-247.46875c-4.710938 0-8.53125-3.820313-8.53125-8.535156 0-4.710938 3.820312-8.53125 8.53125-8.53125h247.46875l-82.328125-179.046875-254.738281-.15625c-4.714844 0-8.535157-3.820313-8.535157-8.53125 0-4.714844 3.820313-8.535156 8.535157-8.535156h254.632812c6.769531.011718 12.898438 4 15.652344 10.179687l82.378906 179.109375c2.351562 5.347656 1.828125 11.519531-1.382812 16.398438-3.148438 4.78125-8.492188 7.652343-14.214844 7.648437zm0 0"/><path d="m34.132812 211.316406c-4.710937 0-8.53125-3.820312-8.53125-8.53125v-153.601562c0-9.425782 7.640626-17.066406 17.066407-17.066406h72.53125c4.714843 0 8.535156 3.820312 8.535156 8.535156 0 4.710937-3.820313 8.53125-8.535156 8.53125h-72.53125v153.601562c0 4.710938-3.820313 8.53125-8.535157 8.53125zm0 0"/><path d="m486.398438 424.652344h-238.933594c-4.710938 0-8.53125-3.820313-8.53125-8.535156v-179.199219c0-4.710938 3.820312-8.53125 8.53125-8.53125h238.933594c4.714843 0 8.535156 3.820312 8.535156 8.53125v179.199219c0 4.714843-3.820313 8.535156-8.535156 8.535156zm-230.398438-17.066406h221.867188v-162.132813h-221.867188zm0 0"/><path d="m204.800781 390.519531h-136.535156c-9.425781 0-17.066406-7.640625-17.066406-17.066406v-76.800781c0-9.425782 7.640625-17.066406 17.066406-17.066406h136.535156c9.425781 0 17.066407 7.640624 17.066407 17.066406v76.800781c0 9.425781-7.640626 17.066406-17.066407 17.066406zm-136.535156-93.867187v76.800781h136.535156v-76.800781zm0 0"/><path d="m110.933594 390.519531c-4.714844 0-8.535156-3.820312-8.535156-8.535156v-93.867187c0-4.710938 3.820312-8.53125 8.535156-8.53125 4.710937 0 8.53125 3.820312 8.53125 8.53125v93.867187c0 4.714844-3.820313 8.535156-8.53125 8.535156zm0 0"/><path d="m162.132812 390.519531c-4.710937 0-8.53125-3.820312-8.53125-8.535156v-93.867187c0-4.710938 3.820313-8.53125 8.53125-8.53125 4.714844 0 8.535157 3.820312 8.535157 8.53125v93.867187c0 4.714844-3.820313 8.535156-8.535157 8.535156zm0 0"/><path d="m443.734375 424.652344h-68.269531c-4.710938 0-8.53125-3.820313-8.53125-8.535156v-110.933594c0-23.5625 19.101562-42.664063 42.667968-42.664063 23.5625 0 42.664063 19.101563 42.664063 42.664063v110.933594c0 4.714843-3.820313 8.535156-8.53125 8.535156zm-59.734375-17.066406h51.199219v-102.402344c0-14.136719-11.460938-25.597656-25.597657-25.597656-14.140624 0-25.601562 11.460937-25.601562 25.597656zm0 0"/><path d="m332.800781 373.453125h-42.667969c-9.425781 0-17.066406-7.640625-17.066406-17.066406v-59.734375c0-9.425782 7.640625-17.066406 17.066406-17.066406h42.667969c9.425781 0 17.066407 7.640624 17.066407 17.066406v59.734375c0 9.425781-7.640626 17.066406-17.066407 17.066406zm-42.667969-76.800781v59.734375h42.667969v-59.734375zm0 0"/><path d="m213.332031 262.519531h-153.597656c-4.714844 0-8.535156-3.820312-8.535156-8.535156 0-4.710937 3.820312-8.53125 8.535156-8.53125h153.597656c4.714844 0 8.535157 3.820313 8.535157 8.53125 0 4.714844-3.820313 8.535156-8.535157 8.535156zm0 0"/><path d="m162.132812 194.25h-51.199218c-4.714844 0-8.535156-3.820312-8.535156-8.53125v-59.734375c0-18.851563 15.285156-34.132813 34.136718-34.132813 18.847656 0 34.132813 15.28125 34.132813 34.132813v59.734375c0 4.710938-3.820313 8.53125-8.535157 8.53125zm-42.667968-17.066406h34.136718v-51.199219c0-9.425781-7.640624-17.066406-17.066406-17.066406-9.425781 0-17.070312 7.640625-17.070312 17.066406zm0 0"/><path d="m162.132812 151.585938h-51.199218c-4.714844 0-8.535156-3.820313-8.535156-8.535157 0-4.710937 3.820312-8.53125 8.535156-8.53125h51.199218c4.714844 0 8.535157 3.820313 8.535157 8.53125 0 4.714844-3.820313 8.535157-8.535157 8.535157zm0 0"/><path d="m401.066406 202.785156h-119.464844c-4.714843 0-8.535156-3.820312-8.535156-8.535156v-85.332031c0-14.136719 11.460938-25.601563 25.601563-25.601563h85.332031c14.136719 0 25.601562 11.464844 25.601562 25.601563v85.332031c0 4.714844-3.820312 8.535156-8.535156 8.535156zm-110.933594-17.066406h102.402344v-76.800781c0-4.710938-3.824218-8.53125-8.535156-8.53125h-85.332031c-4.714844 0-8.535157 3.820312-8.535157 8.53125zm0 0"/><path d="m401.066406 160.117188h-119.464844c-4.714843 0-8.535156-3.820313-8.535156-8.53125 0-4.714844 3.820313-8.535157 8.535156-8.535157h119.464844c4.714844 0 8.535156 3.820313 8.535156 8.535157 0 4.710937-3.820312 8.53125-8.535156 8.53125zm0 0"/><path d="m341.332031 202.785156c-4.710937 0-8.53125-3.820312-8.53125-8.535156v-102.398438c0-4.710937 3.820313-8.535156 8.53125-8.535156 4.714844 0 8.535157 3.824219 8.535157 8.535156v102.398438c0 4.714844-3.820313 8.535156-8.535157 8.535156zm0 0"/></svg>